<?xml version="1.0" encoding="utf-8"?>
<!-- Generator: Adobe Illustrator 28.2.0, SVG Export Plug-In . SVG Version: 6.00 Build 0)  -->
<svg version="1.1" xmlns="http://www.w3.org/2000/svg" xmlns:xlink="http://www.w3.org/1999/xlink" x="0px" y="0px"
	 viewBox="0 0 1366 768" style="enable-background:new 0 0 1366 768;" xml:space="preserve">
<style type="text/css">
	.st0{display:none;}
	.st1{display:inline;fill:#C1FFB0;stroke:#000000;stroke-miterlimit:10;}
	.st2{display:inline;fill:#99CCFF;stroke:#000000;stroke-miterlimit:10;}
	.st3{fill:url(#SVGID_1_);}
	.st4{fill:url(#SVGID_00000059301584651612615420000013793077280799267981_);}
	.st5{fill:url(#SVGID_00000170279334282057979160000005244921366082790305_);}
	.st6{fill:url(#SVGID_00000177462057044451477100000002866623949242619560_);}
	.st7{fill:url(#SVGID_00000181803874940497757700000013524062941501837489_);}
	.st8{fill:url(#SVGID_00000169522183393783649940000007624442762903334576_);}
	.st9{fill:url(#SVGID_00000033338075994707926880000006348772148946683325_);}
</style>
<g id="Fond" class="st0">
	<circle class="st1" cx="706.5" cy="389.5" r="358"/>
	<ellipse class="st2" cx="1252.5" cy="526" rx="3" ry="0.5"/>
</g>
<g id="logo">
	<g>
		<linearGradient id="SVGID_1_" gradientUnits="userSpaceOnUse" x1="964.823" y1="318.8441" x2="1025.8729" y2="318.8441">
			<stop  offset="0" style="stop-color:#FFFFFF"/>
			<stop  offset="0.0428" style="stop-color:#ECF3FD"/>
			<stop  offset="0.1967" style="stop-color:#AFCAF8"/>
			<stop  offset="0.3495" style="stop-color:#79A6F3"/>
			<stop  offset="0.4972" style="stop-color:#4E8AF0"/>
			<stop  offset="0.639" style="stop-color:#2C73ED"/>
			<stop  offset="0.7733" style="stop-color:#1463EB"/>
			<stop  offset="0.8969" style="stop-color:#0559E9"/>
			<stop  offset="1" style="stop-color:#0056E9"/>
		</linearGradient>
		<path class="st3" d="M1023.07,320.71c0.79-1.74,2.16-4.8,2.63-9.04c0.81-7.32-1.54-13.54-1.86-13.49
			c-0.21,0.03,0.42,2.45,0.31,6.13c-0.06,1.86-0.31,7.77-3.87,13.95c-4,6.96-9.87,10.22-12.23,11.5c-2.23,1.21-8.21,4.33-16.41,3.99
			c-9.05-0.39-17.3-4.86-22.13-10.88c-2.98-3.71-4.28-7.53-4.64-7.36c-0.33,0.15,1.06,4.91,3.71,9.2c0.22,0.35,0.54,0.86,0.96,1.47
			c1.27,1.84,6.06,7.9,13.9,11.1c8.63,3.52,19.76,3.07,28.33-2.61C1018.85,329.97,1021.93,323.21,1023.07,320.71z"/>
		
			<linearGradient id="SVGID_00000165222074086549110930000008548950230144048544_" gradientUnits="userSpaceOnUse" x1="977.2541" y1="303.4342" x2="1043" y2="303.4342">
			<stop  offset="0" style="stop-color:#FFFFFF"/>
			<stop  offset="0.0428" style="stop-color:#ECF3FD"/>
			<stop  offset="0.1967" style="stop-color:#AFCAF8"/>
			<stop  offset="0.3495" style="stop-color:#79A6F3"/>
			<stop  offset="0.4972" style="stop-color:#4E8AF0"/>
			<stop  offset="0.639" style="stop-color:#2C73ED"/>
			<stop  offset="0.7733" style="stop-color:#1463EB"/>
			<stop  offset="0.8969" style="stop-color:#0559E9"/>
			<stop  offset="1" style="stop-color:#0056E9"/>
		</linearGradient>
		<path style="fill:url(#SVGID_00000165222074086549110930000008548950230144048544_);" d="M1037,280.55
			c-0.53-0.95-11.18-19.43-31.58-23.61c-14.26-2.92-28.21,2.2-28.17,2.45c0.02,0.12,3.38-0.62,8.36-0.61
			c3.72,0,13.25,0.12,23.53,5.52c10.83,5.69,16.54,14.09,18.88,18.09c5.15,8.79,6.11,16.9,6.35,19.77
			c1.35,16.2-6.09,32.48-17.49,41.23c-5.15,3.96-11.72,6.84-11.45,7.36c0.23,0.46,5.39-1.55,8.05-2.76
			c8.23-3.75,23.81-14.15,28.33-33.57C1045.84,297.05,1038.51,283.26,1037,280.55z"/>
		
			<linearGradient id="SVGID_00000060027261142386385610000017904575515103589555_" gradientUnits="userSpaceOnUse" x1="951.8684" y1="300.2288" x2="1017.2819" y2="300.2288">
			<stop  offset="0" style="stop-color:#FFFFFF"/>
			<stop  offset="0.0428" style="stop-color:#ECF3FD"/>
			<stop  offset="0.1967" style="stop-color:#AFCAF8"/>
			<stop  offset="0.3495" style="stop-color:#79A6F3"/>
			<stop  offset="0.4972" style="stop-color:#4E8AF0"/>
			<stop  offset="0.639" style="stop-color:#2C73ED"/>
			<stop  offset="0.7733" style="stop-color:#1463EB"/>
			<stop  offset="0.8969" style="stop-color:#0559E9"/>
			<stop  offset="1" style="stop-color:#0056E9"/>
		</linearGradient>
		<path style="fill:url(#SVGID_00000060027261142386385610000017904575515103589555_);" d="M981.59,281.78
			c4.84,0.49,10.27,1.03,16.25,4.45c2.62,1.5,6.34,3.67,9.13,8.12c3.67,5.85,3.4,11.86,3.1,14.41c-0.19,1.57-1.13,7.96-5.57,12.57
			c-0.64,0.67-2.31,2.29-2.17,2.45c0.18,0.21,3.02-1.94,3.1-1.84c0.04,0.05-0.63,0.6-0.62,0.61c0.02,0.03,2.25-1.73,2.94-2.3
			c6.56-5.43,8.67-12.26,8.67-12.26c0.73-2.75,1.65-7.91-0.31-13.49c-3.78-10.78-15.31-14.64-19.19-15.94
			c-11.33-3.79-21.58-1.03-28.79,0.92c-8.76,2.36-16.33,6.39-16.25,6.59c0.04,0.1,2.23-0.76,4.64-1.53
			C968.81,280.61,979.5,281.57,981.59,281.78z"/>
		
			<linearGradient id="SVGID_00000003083382562336598660000012801012858948721851_" gradientUnits="userSpaceOnUse" x1="423.2529" y1="383.9371" x2="1026.3218" y2="383.9371">
			<stop  offset="0" style="stop-color:#FFFFFF"/>
			<stop  offset="0.0428" style="stop-color:#ECF3FD"/>
			<stop  offset="0.1967" style="stop-color:#AFCAF8"/>
			<stop  offset="0.3495" style="stop-color:#79A6F3"/>
			<stop  offset="0.4972" style="stop-color:#4E8AF0"/>
			<stop  offset="0.639" style="stop-color:#2C73ED"/>
			<stop  offset="0.7733" style="stop-color:#1463EB"/>
			<stop  offset="0.8969" style="stop-color:#0559E9"/>
			<stop  offset="1" style="stop-color:#0056E9"/>
		</linearGradient>
		<path style="fill:url(#SVGID_00000003083382562336598660000012801012858948721851_);" d="M975.71,274.11
			c4.33-0.64,10.56-1.51,18.57-0.31c4.28,0.64,12.38,1.94,20.74,7.66c5.6,3.83,9.2,8.2,11.3,11.19c-0.34-1.37-0.94-3.26-2.01-5.37
			c-0.88-1.72-2.2-3.83-5.26-7.05c-2.21-2.33-5.41-5.65-10.53-8.89c-7.87-4.99-15.21-6.55-17.96-7.05
			c-9.52-1.72-17.02-0.16-21.98,0.92c-7.42,1.62-12.64,4.07-19.97,7.51c-3.66,1.72-2.96,1.43-5.5,2.51
			c-6.16,2.63-15.92,6.79-27.33,7.13c-0.04,0-0.01,0-9.79,0c-8.64,0-8.64,0-8.64,0c-0.06-0.02-0.33-0.11-0.58,0
			c-0.45,0.2-0.54,0.93-0.58,1.17c-0.18,1.22-0.88,2.32-1.15,3.52c-0.08,0.36-1.21,4.35-3.45,12.33c-0.64,2.28-0.72,2.44-1.73,5.87
			c-1.77,6.03-2.62,9.25-4.61,16.44c-0.37,1.35,0.04-0.16-4.61,16.44c-3.54,12.65-3.68,13.15-4.61,16.44
			c-2.47,8.78-3.69,12.95-5.18,18.2c-4.32,15.16-7.38,26.62-12.67,46.38c-1.32,4.94-2.79,10.47-4.61,17.61
			c-2.87,11.3-3.48,13.55-4.03,16.44c-0.33,1.72-0.6,2.91-1.15,5.28c-1.11,4.79-1.79,7.68-2.3,7.63c-0.39-0.04-0.35-1.75-1.15-7.05
			c0,0-0.23-1.53-0.58-3.52c-0.65-3.75-1.31-6.45-1.73-8.22c-1.06-4.5-1.32-6.35-2.3-11.16c-4.22-20.61-10.36-44.03-10.36-44.03
			c-1.1-4.18-2.65-9.83-5.76-21.13c-3.04-11.04-4.32-15.55-6.34-23.49c-1.85-7.29-1.65-6.97-3.45-14.09
			c-2.91-11.47-4.45-16.18-6.91-25.25c-1.63-6-3.91-14.82-6.33-25.83c-5.18,0-10.36,0-15.55,0c-5.37,0-10.75,0-16.12,0
			c-7.11,24.17-12.78,43.86-16.7,57.54c-6.93,24.24-6.3,22.49-11.52,40.51c-5.8,20.04-8.48,28.78-12.67,44.62
			c-1.79,6.76-4.53,17.4-7.48,31.12c-0.98,4.54-1.75,8.37-2.3,11.16c-0.52-2.62-1.3-6.48-2.3-11.16
			c-2.79-13.04-5.21-22.62-7.48-31.7c-7.27-29,1.14,4.37-8.06-32.29c-6.76-26.9-7.15-29.03-10.36-41.1
			c-1.48-5.57-1.97-7.23-2.61-9.64c-0.47-1.76-0.79-3.03-0.85-3.28c-5-19.67-10.94-32.88-10.94-32.88
			c-8.09-17.35-19.33-24.58-24.27-27.27c0,0-13.24-7.21-43.67-7.95c-4.29-0.11-8.46,0.09-8.46,0.09c-1.96,0.09-4.14,0.25-6.51,0.49
			c-5.33,0.56-9.38,1.36-14.39,2.35c-3.94,0.78-5.91,1.17-8.06,1.76c-6.85,1.89-11.88,4.35-14.97,5.87
			c-1.83,0.9-4.32,2.14-7.48,4.11c-2.67,1.66-6.9,4.33-11.52,8.81c-1.38,1.34-3.47,3.39-5.76,6.46c-4.01,5.38-6.02,10.42-6.91,12.92
			c-0.74,2.1-2.85,8.48-2.85,16.77v0c0,7.34,1.21,12.98,1.7,14.93c2.75,10.91,11.81,20.27,13.24,21.72
			c4.45,4.51,8.37,6.97,14.18,10.61c7.76,4.86,14.76,7.97,19.79,9.94l53.55,22.9l0,0c2.17,1.29,12.45,7.74,15.12,20.22
			c3.13,14.63-6.66,25.97-9.36,29.1c-8.66,10.03-20.01,12.76-28.21,14.68c-8.2,1.91-14.16,1.81-22.45,1.76
			c-26.44-0.17-39.67-0.25-44.97,0.46c-23.21,3.14-31.86,13-60.13,17.78c-3.1,0.52-9.94,1.6-18.57,0.31
			c-4.28-0.64-12.38-1.94-20.74-7.66c-5.6-3.83-9.2-8.2-11.3-11.19c0.34,1.37,0.94,3.26,2.01,5.37c0.88,1.72,2.2,3.83,5.26,7.05
			c2.21,2.33,5.41,5.65,10.53,8.89c3.66,2.32,10.19,5.43,17.96,7.05c4.56,0.95,9.47,1.24,26.99-0.59c21.32-2.22,23.07-3.64,36-4
			c1.36-0.04-0.08,0.02,19,0c6.87-0.01,10.79-0.07,17.08,0.01c6.17,0.08,8.86,0.2,12.18,0.27c11.08,0.23,22.8,0.46,36.92-2.02
			c8.27-1.46,15.07-3.44,19-4.7c3.87-1.24,6.68-2.13,9.79-3.52c12.2-5.45,19.76-14.42,21.88-17.03
			c3.38-4.16,14.56-18.35,13.75-39.11c-0.11-2.74-1.04-20.21-13.6-34.46c-8.55-9.7-20.01-15.1-26.94-18.36
			c-3.87-1.82-9.26-4.03-10.06-4.36c-1.75-0.71-8.9-3.62-19-7.05c-6.09-2.07-8.35-2.66-13.21-4.66c-3.67-1.51-6.63-2.91-7.95-3.57
			c-8.18-4.06-17.74-8.82-22.6-18.19c-4.53-8.75-4.4-20.44,0.58-29.36c7.05-12.63,20.93-15.76,29.36-17.61
			c24.04-5.28,54.09,3.09,66.21,23.48c1.08,1.82,2.65,5.45,5.18,12.92c5.88,17.32,10.54,34.49,13.24,44.03
			c4.35,15.36,3.6,11.17,8.64,28.77c1.48,5.17,2.39,8.47,11.52,42.27c4,14.8,4.4,16.3,5.18,19.37c3.47,13.63,5.93,24.84,7.48,32.29
			c3.45,0,6.91,0,10.36,0s6.91,0,10.36,0c2.88,0,2.88,0,2.88,0c0.44-0.01,1.13-0.03,1.99,0c0.46,0.02,0.66,0.13,0.89,0
			c0.41-0.24,0.37-0.82,0.58-1.76c0,0,0.19-0.59,0.58-1.76c0.38-1.17,0.77-2.35,1.15-3.52c0.99-3.03,1.73-5.28,1.73-5.28
			c1.48-4.55,2.89-9.81,4.61-15.85c0.93-3.25,1.77-6.08,3.45-11.74c3.03-10.22,3.04-9.75,5.18-17.03
			c2.87-9.74,3.03-11.24,6.33-22.31c0.03-0.11,0.79-2.62,2.3-7.63c2.74-9.08,3.98-13.19,4.61-15.26c0.42-1.39,2.65-8.77,3.79-12.62
			c3.27-11.1,5.74-20.08,7.73-27.3c3.73-13.55,6.21-23.27,8.64-35.23c0.5-2.45,0.89-4.48,1.15-5.87c0.16-0.05,0.38-0.09,0.58,0
			c0.58,0.28,0.45,1.49,0.58,2.94l1.15,8.81c0.16,1.41,0.26,1.5,1.15,5.87c0.64,3.16,1.01,5.15,1.15,5.87
			c4.06,20.7,13.82,56.95,13.82,56.95c9.09,33.75,7.29,29.13,20.73,79.26c2.71,10.11,4.94,18.34,6.33,23.48c2.3,0,4.61,0,6.91,0
			c3.07,0,6.14,0,9.21,0c3.65,0,7.29,0,10.94,0c4.61,0,4.61,0,4.61,0c0,0,2.26-7.11,4.03-12.92c1.61-5.28,2.48-8.4,3.45-11.74
			c3.51-12.09,4.83-15.17,9.21-29.36c2.89-9.37,1.85-6.52,5.76-19.37c3.19-10.5,4.6-14.48,9.79-31.12c0.9-2.89,1.75-5.64,3.45-11.16
			c4.52-14.64,8.19-26.73,10.01-32.73c0.1-0.33,0.71-2.36,0.93-3.09c3.11-10.27,8.41-27.79,12.44-41.05L923,296
			c0.05-0.77,0.25-1.93,1-3c1.6-2.28,4.44-2.35,8.68-3.56c0.32-0.09,2.65-0.91,7.2-2.79c4.7-1.94,7.76-3.47,12.61-5.49
			C959.13,278.41,966.25,275.5,975.71,274.11z"/>
		
			<linearGradient id="SVGID_00000173136652626897652810000009065239518500944277_" gradientUnits="userSpaceOnUse" x1="423.7018" y1="449.0479" x2="484.7517" y2="449.0479">
			<stop  offset="0" style="stop-color:#FFFFFF"/>
			<stop  offset="0.0428" style="stop-color:#ECF3FD"/>
			<stop  offset="0.1967" style="stop-color:#AFCAF8"/>
			<stop  offset="0.3495" style="stop-color:#79A6F3"/>
			<stop  offset="0.4972" style="stop-color:#4E8AF0"/>
			<stop  offset="0.639" style="stop-color:#2C73ED"/>
			<stop  offset="0.7733" style="stop-color:#1463EB"/>
			<stop  offset="0.8969" style="stop-color:#0559E9"/>
			<stop  offset="1" style="stop-color:#0056E9"/>
		</linearGradient>
		<path style="fill:url(#SVGID_00000173136652626897652810000009065239518500944277_);" d="M426.5,447.18
			c-0.79,1.74-2.16,4.8-2.63,9.04c-0.81,7.32,1.54,13.54,1.86,13.49c0.21-0.03-0.42-2.45-0.31-6.13c0.06-1.86,0.31-7.77,3.87-13.95
			c4-6.96,9.87-10.22,12.23-11.5c2.23-1.21,8.21-4.34,16.41-3.99c9.05,0.39,17.3,4.86,22.13,10.88c2.98,3.71,4.28,7.53,4.64,7.36
			c0.33-0.15-1.06-4.91-3.71-9.2c-0.22-0.35-0.54-0.86-0.96-1.47c-1.27-1.84-6.06-7.9-13.9-11.1c-8.63-3.53-19.76-3.07-28.33,2.61
			C430.73,437.92,427.64,444.68,426.5,447.18z"/>
		
			<linearGradient id="SVGID_00000066497784699850582770000012892020713546945426_" gradientUnits="userSpaceOnUse" x1="406.5747" y1="464.4578" x2="472.3206" y2="464.4578">
			<stop  offset="0" style="stop-color:#FFFFFF"/>
			<stop  offset="0.0428" style="stop-color:#ECF3FD"/>
			<stop  offset="0.1967" style="stop-color:#AFCAF8"/>
			<stop  offset="0.3495" style="stop-color:#79A6F3"/>
			<stop  offset="0.4972" style="stop-color:#4E8AF0"/>
			<stop  offset="0.639" style="stop-color:#2C73ED"/>
			<stop  offset="0.7733" style="stop-color:#1463EB"/>
			<stop  offset="0.8969" style="stop-color:#0559E9"/>
			<stop  offset="1" style="stop-color:#0056E9"/>
		</linearGradient>
		<path style="fill:url(#SVGID_00000066497784699850582770000012892020713546945426_);" d="M463.96,509.11
			c-3.72,0-13.25-0.12-23.53-5.52c-10.83-5.69-16.54-14.09-18.88-18.09c-5.15-8.79-6.11-16.9-6.35-19.77
			c-1.35-16.2,6.09-32.48,17.49-41.23c5.15-3.96,11.72-6.84,11.45-7.36c-0.23-0.46-5.39,1.55-8.05,2.76
			c-8.23,3.75-23.81,14.15-28.33,33.57c-4.04,17.38,3.29,31.17,4.8,33.88c0.53,0.95,11.18,19.43,31.58,23.61
			c14.26,2.92,28.21-2.2,28.17-2.45C472.3,508.37,468.95,509.11,463.96,509.11z"/>
		
			<linearGradient id="SVGID_00000161622886318744519530000010561755856122247817_" gradientUnits="userSpaceOnUse" x1="432.2928" y1="467.6633" x2="497.7064" y2="467.6633">
			<stop  offset="0" style="stop-color:#FFFFFF"/>
			<stop  offset="0.0428" style="stop-color:#ECF3FD"/>
			<stop  offset="0.1967" style="stop-color:#AFCAF8"/>
			<stop  offset="0.3495" style="stop-color:#79A6F3"/>
			<stop  offset="0.4972" style="stop-color:#4E8AF0"/>
			<stop  offset="0.639" style="stop-color:#2C73ED"/>
			<stop  offset="0.7733" style="stop-color:#1463EB"/>
			<stop  offset="0.8969" style="stop-color:#0559E9"/>
			<stop  offset="1" style="stop-color:#0056E9"/>
		</linearGradient>
		<path style="fill:url(#SVGID_00000161622886318744519530000010561755856122247817_);" d="M467.99,486.12
			c-4.84-0.49-10.27-1.03-16.25-4.45c-2.62-1.5-6.34-3.67-9.13-8.12c-3.67-5.85-3.4-11.86-3.1-14.41c0.19-1.57,1.13-7.96,5.57-12.57
			c0.64-0.67,2.31-2.29,2.17-2.45c-0.18-0.21-3.02,1.94-3.1,1.84c-0.04-0.05,0.63-0.6,0.62-0.61c-0.02-0.03-2.25,1.73-2.94,2.3
			c-6.56,5.43-8.67,12.26-8.67,12.26c-0.73,2.75-1.65,7.91,0.31,13.49c3.78,10.78,15.31,14.64,19.19,15.94
			c11.33,3.79,21.58,1.03,28.79-0.92c8.76-2.36,16.33-6.39,16.25-6.59c-0.04-0.11-2.23,0.76-4.64,1.53
			C480.76,487.28,470.08,486.33,467.99,486.12z"/>
	</g>
</g>
</svg>
